<?xml version="1.0" ?><svg height="64px" id="SVGRoot" version="1.1" viewBox="0 0 64 64" width="64px" xmlns="http://www.w3.org/2000/svg" xmlns:cc="http://creativecommons.org/ns#" xmlns:dc="http://purl.org/dc/elements/1.1/" xmlns:inkscape="http://www.inkscape.org/namespaces/inkscape" xmlns:rdf="http://www.w3.org/1999/02/22-rdf-syntax-ns#" xmlns:sodipodi="http://sodipodi.sourceforge.net/DTD/sodipodi-0.dtd" xmlns:svg="http://www.w3.org/2000/svg"><title id="title7560"/><defs id="defs7542"/><g id="layer1"><path d="m 32.003906,8.6621094 c -2.479784,-1e-7 -4.501953,2.0202156 -4.501953,4.4999996 v 0.002 c 0.002,0.48437 0.08305,0.965003 0.238281,1.423829 l -0.01953,-0.07813 1.857422,11.154296 h 4.849609 l 1.855469,-11.142578 -0.01953,0.08008 c 0.157382,-0.462894 0.238981,-0.948583 0.240234,-1.4375 v -0.002 c 0,-2.479784 -2.020215,-4.4999997 -4.5,-4.4999996 z m 0,1.0019531 c 1.938494,-10e-8 3.498047,1.5595535 3.498047,3.4980465 -9.74e-4,0.380121 -0.06319,0.757299 -0.185547,1.117188 l -0.01367,0.03711 -1.724609,10.345703 H 30.427734 L 28.701172,14.306641 28.6875,14.267578 c -0.120687,-0.356726 -0.182062,-0.730837 -0.183594,-1.107422 0.0011,-1.937566 1.562174,-3.4960936 3.5,-3.4960935 z" id="path4721" style="color:#000000;font-style:normal;font-variant:normal;font-weight:normal;font-stretch:normal;font-size:medium;line-height:normal;font-family:sans-serif;font-variant-ligatures:normal;font-variant-position:normal;font-variant-caps:normal;font-variant-numeric:normal;font-variant-alternates:normal;font-feature-settings:normal;text-indent:0;text-align:start;text-decoration:none;text-decoration-line:none;text-decoration-style:solid;text-decoration-color:#000000;letter-spacing:normal;word-spacing:normal;text-transform:none;writing-mode:lr-tb;direction:ltr;text-orientation:mixed;dominant-baseline:auto;baseline-shift:baseline;text-anchor:start;white-space:normal;shape-padding:0;clip-rule:nonzero;display:inline;overflow:visible;visibility:visible;opacity:1;isolation:auto;mix-blend-mode:normal;color-interpolation:sRGB;color-interpolation-filters:linearRGB;solid-color:#000000;solid-opacity:1;vector-effect:none;fill:#000000;fill-opacity:1;fill-rule:nonzero;stroke:none;stroke-width:1.00157475;stroke-linecap:butt;stroke-linejoin:miter;stroke-miterlimit:4;stroke-dasharray:none;stroke-dashoffset:0;stroke-opacity:1;color-rendering:auto;image-rendering:auto;shape-rendering:auto;text-rendering:auto;enable-background:accumulate"/><path d="m 32.003906,24.662109 c -4.688923,0 -8.501953,3.811077 -8.501953,8.5 0,4.688924 3.81303,8.501953 8.501953,8.501953 4.688924,0 8.5,-3.813029 8.5,-8.501953 0,-4.688923 -3.811076,-8.5 -8.5,-8.5 z m 0,1.001953 c 4.147632,0 7.498047,3.350415 7.498047,7.498047 0,4.147633 -3.350415,7.5 -7.498047,7.5 -4.147632,0 -7.5,-3.352367 -7.5,-7.5 0,-4.147632 3.352368,-7.498047 7.5,-7.498047 z" id="path4740" style="color:#000000;font-style:normal;font-variant:normal;font-weight:normal;font-stretch:normal;font-size:medium;line-height:normal;font-family:sans-serif;font-variant-ligatures:normal;font-variant-position:normal;font-variant-caps:normal;font-variant-numeric:normal;font-variant-alternates:normal;font-feature-settings:normal;text-indent:0;text-align:start;text-decoration:none;text-decoration-line:none;text-decoration-style:solid;text-decoration-color:#000000;letter-spacing:normal;word-spacing:normal;text-transform:none;writing-mode:lr-tb;direction:ltr;text-orientation:mixed;dominant-baseline:auto;baseline-shift:baseline;text-anchor:start;white-space:normal;shape-padding:0;clip-rule:nonzero;display:inline;overflow:visible;visibility:visible;opacity:1;isolation:auto;mix-blend-mode:normal;color-interpolation:sRGB;color-interpolation-filters:linearRGB;solid-color:#000000;solid-opacity:1;vector-effect:none;fill:#000000;fill-opacity:1;fill-rule:nonzero;stroke:none;stroke-width:1.00157475;stroke-linecap:butt;stroke-linejoin:miter;stroke-miterlimit:4;stroke-dasharray:none;stroke-dashoffset:0;stroke-opacity:1;color-rendering:auto;image-rendering:auto;shape-rendering:auto;text-rendering:auto;enable-background:accumulate"/><path d="m 39.589844,34.726562 -2.423828,4.199219 8.720703,7.177735 -0.05859,-0.05664 c 0.322188,0.367744 0.702212,0.682191 1.125,0.927734 2.147555,1.239889 4.908546,0.499116 6.148437,-1.648437 1.239893,-2.147556 0.501072,-4.906592 -1.646484,-6.146484 l -0.002,-0.002 c -0.42046,-0.240477 -0.876594,-0.410878 -1.351563,-0.505859 l 0.07617,0.02148 z m 0.443359,1.236329 9.832031,3.683593 0.03906,0.0078 c 0.368674,0.07372 0.722372,0.206094 1.048828,0.392578 1.678784,0.969247 2.250497,3.100513 1.28125,4.779297 -0.969246,1.678782 -3.100513,2.250494 -4.779297,1.28125 -0.328707,-0.190904 -0.622554,-0.432838 -0.873047,-0.71875 l -0.02734,-0.03125 -8.097657,-6.666016 z" id="path4742" style="color:#000000;font-style:normal;font-variant:normal;font-weight:normal;font-stretch:normal;font-size:medium;line-height:normal;font-family:sans-serif;font-variant-ligatures:normal;font-variant-position:normal;font-variant-caps:normal;font-variant-numeric:normal;font-variant-alternates:normal;font-feature-settings:normal;text-indent:0;text-align:start;text-decoration:none;text-decoration-line:none;text-decoration-style:solid;text-decoration-color:#000000;letter-spacing:normal;word-spacing:normal;text-transform:none;writing-mode:lr-tb;direction:ltr;text-orientation:mixed;dominant-baseline:auto;baseline-shift:baseline;text-anchor:start;white-space:normal;shape-padding:0;clip-rule:nonzero;display:inline;overflow:visible;visibility:visible;opacity:1;isolation:auto;mix-blend-mode:normal;color-interpolation:sRGB;color-interpolation-filters:linearRGB;solid-color:#000000;solid-opacity:1;vector-effect:none;fill:#000000;fill-opacity:1;fill-rule:nonzero;stroke:none;stroke-width:1.00157475;stroke-linecap:butt;stroke-linejoin:miter;stroke-miterlimit:4;stroke-dasharray:none;stroke-dashoffset:0;stroke-opacity:1;color-rendering:auto;image-rendering:auto;shape-rendering:auto;text-rendering:auto;enable-background:accumulate"/><path d="m 24.224609,34.726562 -10.58789,3.966797 0.07813,-0.02148 c -0.474969,0.09498 -0.933055,0.265382 -1.353516,0.505859 l -0.002,0.002 c -2.147556,1.239892 -2.8863762,3.998927 -1.646484,6.146484 1.239892,2.147556 4.000881,2.888329 6.148437,1.648437 0.422788,-0.245543 0.802812,-0.55999 1.125,-0.927734 l -0.05859,0.05664 8.720704,-7.177735 z m -0.443359,1.236329 1.576172,2.728515 -8.097656,6.666016 -0.02539,0.03125 c -0.250493,0.285912 -0.546293,0.527846 -0.875,0.71875 -1.678784,0.969246 -3.81005,0.397534 -4.779297,-1.28125 -0.968991,-1.678343 -0.398462,-3.809694 1.279297,-4.779297 0.326898,-0.186965 0.681505,-0.318733 1.050781,-0.392578 l 0.03906,-0.0078 z" id="path4744" style="color:#000000;font-style:normal;font-variant:normal;font-weight:normal;font-stretch:normal;font-size:medium;line-height:normal;font-family:sans-serif;font-variant-ligatures:normal;font-variant-position:normal;font-variant-caps:normal;font-variant-numeric:normal;font-variant-alternates:normal;font-feature-settings:normal;text-indent:0;text-align:start;text-decoration:none;text-decoration-line:none;text-decoration-style:solid;text-decoration-color:#000000;letter-spacing:normal;word-spacing:normal;text-transform:none;writing-mode:lr-tb;direction:ltr;text-orientation:mixed;dominant-baseline:auto;baseline-shift:baseline;text-anchor:start;white-space:normal;shape-padding:0;clip-rule:nonzero;display:inline;overflow:visible;visibility:visible;opacity:1;isolation:auto;mix-blend-mode:normal;color-interpolation:sRGB;color-interpolation-filters:linearRGB;solid-color:#000000;solid-opacity:1;vector-effect:none;fill:#000000;fill-opacity:1;fill-rule:nonzero;stroke:none;stroke-width:1.00157475;stroke-linecap:butt;stroke-linejoin:miter;stroke-miterlimit:4;stroke-dasharray:none;stroke-dashoffset:0;stroke-opacity:1;color-rendering:auto;image-rendering:auto;shape-rendering:auto;text-rendering:auto;enable-background:accumulate"/><path d="m 24.00293,18.740628 c -4.798742,2.669543 -8.127733,7.660342 -8.464844,13.453125 l 1.050782,-0.607422 c 0.503541,-4.965258 3.348044,-9.228272 7.414062,-11.685547 z m 16,0 v 1.160156 c 4.491827,2.713949 7.501953,7.62732 7.501953,13.261719 0,0.203086 -0.02352,0.40038 -0.03125,0.601562 l 0.968747,0.558594 c 0.0269,-0.384965 0.0586,-0.768387 0.0586,-1.160156 0,-6.203788 -3.432459,-11.604491 -8.498044,-14.421875 z m -16.542969,27.353516 -0.947265,0.546875 c 2.686102,1.895529 5.954914,3.019531 9.490234,3.019531 2.780443,0 5.396309,-0.695801 7.695312,-1.912109 l -1.039062,-0.59961 c -2.018909,0.962219 -4.269472,1.515625 -6.65625,1.515625 -3.159268,0 -6.093321,-0.949538 -8.542969,-2.570312 z" id="path4748" style="color:#000000;font-style:normal;font-variant:normal;font-weight:normal;font-stretch:normal;font-size:medium;line-height:normal;font-family:sans-serif;font-variant-ligatures:normal;font-variant-position:normal;font-variant-caps:normal;font-variant-numeric:normal;font-variant-alternates:normal;font-feature-settings:normal;text-indent:0;text-align:start;text-decoration:none;text-decoration-line:none;text-decoration-style:solid;text-decoration-color:#000000;letter-spacing:normal;word-spacing:normal;text-transform:none;writing-mode:lr-tb;direction:ltr;text-orientation:mixed;dominant-baseline:auto;baseline-shift:baseline;text-anchor:start;white-space:normal;shape-padding:0;clip-rule:nonzero;display:inline;overflow:visible;visibility:visible;opacity:1;isolation:auto;mix-blend-mode:normal;color-interpolation:sRGB;color-interpolation-filters:linearRGB;solid-color:#000000;solid-opacity:1;vector-effect:none;fill:#000000;fill-opacity:1;fill-rule:nonzero;stroke:none;stroke-width:1.00157475;stroke-linecap:butt;stroke-linejoin:miter;stroke-miterlimit:4;stroke-dasharray:none;stroke-dashoffset:0;stroke-opacity:1;color-rendering:auto;image-rendering:auto;shape-rendering:auto;text-rendering:auto;enable-background:accumulate"/><path d="m 40.00293,15.391019 v 1.109375 c 6.207152,2.983821 10.5,9.309832 10.5,16.662109 0,0.767279 -0.0618,1.519037 -0.15234,2.261719 l 0.93164,0.539062 c 0.13257,-0.917336 0.22461,-1.846986 0.22461,-2.800781 0,-7.911143 -4.728365,-14.713532 -11.50391,-17.771484 z m -16,0.002 c -6.774477,3.058343 -11.501953,9.859118 -11.501953,17.769484 0,0.259154 0.0095,0.516724 0.01953,0.773438 l 0.994141,-0.574219 c -7.14e-4,-0.06708 -0.0098,-0.131969 -0.0098,-0.199219 0,-7.352277 4.290895,-13.678288 10.498047,-16.662109 z m -3.378906,32.339843 -0.9375,0.541016 c 3.359392,2.742541 7.645643,4.392578 12.316406,4.392578 3.942551,0 7.608276,-1.180329 10.677734,-3.195312 l -0.986328,-0.57036 c -2.820511,1.739837 -6.131813,2.761719 -9.691406,2.761719 -4.29697,0 -8.240031,-1.475061 -11.378906,-3.929688 z" id="path4750" style="color:#000000;font-style:normal;font-variant:normal;font-weight:normal;font-stretch:normal;font-size:medium;line-height:normal;font-family:sans-serif;font-variant-ligatures:normal;font-variant-position:normal;font-variant-caps:normal;font-variant-numeric:normal;font-variant-alternates:normal;font-feature-settings:normal;text-indent:0;text-align:start;text-decoration:none;text-decoration-line:none;text-decoration-style:solid;text-decoration-color:#000000;letter-spacing:normal;word-spacing:normal;text-transform:none;writing-mode:lr-tb;direction:ltr;text-orientation:mixed;dominant-baseline:auto;baseline-shift:baseline;text-anchor:start;white-space:normal;shape-padding:0;clip-rule:nonzero;display:inline;overflow:visible;visibility:visible;opacity:1;isolation:auto;mix-blend-mode:normal;color-interpolation:sRGB;color-interpolation-filters:linearRGB;solid-color:#000000;solid-opacity:1;vector-effect:none;fill:#000000;fill-opacity:1;fill-rule:nonzero;stroke:none;stroke-width:1.00157475;stroke-linecap:butt;stroke-linejoin:miter;stroke-miterlimit:4;stroke-dasharray:none;stroke-dashoffset:0;stroke-opacity:1;color-rendering:auto;image-rendering:auto;shape-rendering:auto;text-rendering:auto;enable-background:accumulate"/><path d="m 24.00293,12.475003 c -8.292756,3.213295 -14.181641,11.266008 -14.181641,20.6875 0,0.765161 0.03945,1.520367 0.115235,2.265625 l 1.099609,-0.634766 c -0.04126,-0.538707 -0.07031,-1.081503 -0.07031,-1.630859 0,-8.793099 5.384035,-16.314675 13.037109,-19.460938 z m 16,0 v 1.226562 c 7.653785,3.145935 13.03906,10.667326 13.03906,19.460938 0,1.239856 -0.11303,2.452056 -0.31836,3.632812 l 1.04493,0.603516 c 0.26562,-1.37158 0.41015,-2.787416 0.41015,-4.236328 0,-9.421492 -5.88504,-17.474205 -14.17578,-20.6875 z m -21.726562,36.613281 -1.050782,0.605469 c 3.924437,3.509017 9.102718,5.644531 14.777344,5.644531 4.962463,0 9.544397,-1.63228 13.240234,-4.388672 l -1.089843,-0.628906 c -3.433162,2.43469 -7.617459,3.88086 -12.150391,3.880859 -5.253024,0 -10.041902,-1.934597 -13.726562,-5.113281 z" id="circle4756" style="color:#000000;font-style:normal;font-variant:normal;font-weight:normal;font-stretch:normal;font-size:medium;line-height:normal;font-family:sans-serif;font-variant-ligatures:normal;font-variant-position:normal;font-variant-caps:normal;font-variant-numeric:normal;font-variant-alternates:normal;font-feature-settings:normal;text-indent:0;text-align:start;text-decoration:none;text-decoration-line:none;text-decoration-style:solid;text-decoration-color:#000000;letter-spacing:normal;word-spacing:normal;text-transform:none;writing-mode:lr-tb;direction:ltr;text-orientation:mixed;dominant-baseline:auto;baseline-shift:baseline;text-anchor:start;white-space:normal;shape-padding:0;clip-rule:nonzero;display:inline;overflow:visible;visibility:visible;opacity:1;isolation:auto;mix-blend-mode:normal;color-interpolation:sRGB;color-interpolation-filters:linearRGB;solid-color:#000000;solid-opacity:1;vector-effect:none;fill:#000000;fill-opacity:1;fill-rule:nonzero;stroke:none;stroke-width:1.13914812;stroke-linecap:butt;stroke-linejoin:miter;stroke-miterlimit:4;stroke-dasharray:none;stroke-dashoffset:0;stroke-opacity:1;color-rendering:auto;image-rendering:auto;shape-rendering:auto;text-rendering:auto;enable-background:accumulate"/><path d="m 25.499024,31.162503 c 0,4.688923 3.814983,8.503904 8.503905,8.503904 v -1.003902 c -4.147632,0 -7.499999,-3.35237 -7.499999,-7.500002 z" id="circle4826" style="color:#000000;font-style:normal;font-variant:normal;font-weight:normal;font-stretch:normal;font-size:medium;line-height:normal;font-family:sans-serif;font-variant-ligatures:normal;font-variant-position:normal;font-variant-caps:normal;font-variant-numeric:normal;font-variant-alternates:normal;font-feature-settings:normal;text-indent:0;text-align:start;text-decoration:none;text-decoration-line:none;text-decoration-style:solid;text-decoration-color:#000000;letter-spacing:normal;word-spacing:normal;text-transform:none;writing-mode:lr-tb;direction:ltr;text-orientation:mixed;dominant-baseline:auto;baseline-shift:baseline;text-anchor:start;white-space:normal;shape-padding:0;clip-rule:nonzero;display:inline;overflow:visible;visibility:visible;opacity:1;isolation:auto;mix-blend-mode:normal;color-interpolation:sRGB;color-interpolation-filters:linearRGB;solid-color:#000000;solid-opacity:1;vector-effect:none;fill:#000000;fill-opacity:1;fill-rule:nonzero;stroke:none;stroke-width:1.00157475;stroke-linecap:butt;stroke-linejoin:miter;stroke-miterlimit:4;stroke-dasharray:none;stroke-dashoffset:0;stroke-opacity:1;color-rendering:auto;image-rendering:auto;shape-rendering:auto;text-rendering:auto;enable-background:accumulate"/></g></svg>